<?xml version="1.0" encoding="UTF-8" standalone="no"?>
<svg
   version="1.1"
   id="Layer_1"
   x="0px"
   y="0px"
   width="100%"
   viewBox="0 0 680 1024"
   enable-background="new 0 0 680 1024"
   xml:space="preserve"
   sodipodi:docname="basketball_only_vectors.svg"
   inkscape:version="1.3.2 (091e20e, 2023-11-25)"
   xmlns:inkscape="http://www.inkscape.org/namespaces/inkscape"
   xmlns:sodipodi="http://sodipodi.sourceforge.net/DTD/sodipodi-0.dtd"
   xmlns="http://www.w3.org/2000/svg"
   xmlns:svg="http://www.w3.org/2000/svg"><defs
   id="defs2439"><linearGradient
     id="swatch2459"
     inkscape:swatch="solid"><stop
       style="stop-color:#000000;stop-opacity:1;"
       offset="0"
       id="stop2459" /></linearGradient></defs><sodipodi:namedview
   id="namedview2439"
   pagecolor="#ffffff"
   bordercolor="#000000"
   borderopacity="0.25"
   inkscape:showpageshadow="2"
   inkscape:pageopacity="0.0"
   inkscape:pagecheckerboard="0"
   inkscape:deskcolor="#d1d1d1"
   inkscape:zoom="0.91321923"
   inkscape:cx="312.6303"
   inkscape:cy="465.38661"
   inkscape:window-width="1920"
   inkscape:window-height="1016"
   inkscape:window-x="0"
   inkscape:window-y="0"
   inkscape:window-maximized="1"
   inkscape:current-layer="layer4"
   showgrid="false" />
<g
   inkscape:groupmode="layer"
   id="layer4"
   inkscape:label="vectors"
   transform="translate(12.18087,50.7297)"><path
     style="opacity:1;fill:none;fill-opacity:1;stroke:#00ff00;stroke-width:1.5;stroke-dasharray:none;stroke-dashoffset:0;stroke-opacity:1"
     d="m 259.79697,31.970664 -0.36295,75.758536 -4.66266,59.25926 162.9082,-1.73034 -3.89041,-57.52892 -0.83328,-75.758536 z"
     id="path2459"
     inkscape:label="Lay-ups"
     sodipodi:nodetypes="ccccccc" /><path
     style="opacity:1;fill:none;fill-opacity:1;stroke:#00ff00;stroke-width:1.5;stroke-dasharray:none;stroke-dashoffset:0;stroke-opacity:1"
     d="m 254.78292,166.65322 -8.37516,114.09525 c 0,0 36.52751,19.46642 84.62341,20.97948 48.0959,1.51307 94.69387,-20.8411 94.69387,-20.8411 l -7.90937,-115.72628 z"
     id="path2461"
     inkscape:label="middle2pt"
     sodipodi:nodetypes="ccsccc" /><path
     style="opacity:1;fill:none;fill-opacity:1;stroke:#00ff00;stroke-width:1.5;stroke-dasharray:none;stroke-dashoffset:0;stroke-opacity:1"
     d="M 532.37898,156.93211 413.34378,107.7292 412.78876,31.970664 H 542.7398 c 0,0 -1.05463,29.217202 -1.01325,74.834516 0.0211,23.20767 -9.34757,50.12693 -9.34757,50.12693 z"
     id="path2465"
     inkscape:label="rightCorner2pt"
     sodipodi:nodetypes="ccccsc" /><path
     style="opacity:1;fill:none;fill-opacity:1;stroke:#00ff00;stroke-width:1.5;stroke-dasharray:none;stroke-dashoffset:0;stroke-opacity:1"
     d="M 140.17877,157.69053 259.52702,107.7292 259.65557,31.970664 H 129.86332 c 0,0 -0.20943,55.548578 1.68282,82.508366 1.42672,20.32729 8.63263,43.2115 8.63263,43.2115 z"
     id="path2466"
     inkscape:label="leftCorger2pt"
     sodipodi:nodetypes="ccccsc" /><path
     style="opacity:1;fill:none;fill-opacity:1;stroke:#00ff00;stroke-width:1.5;stroke-dasharray:none;stroke-dashoffset:0;stroke-opacity:1"
     d="M 129.96605,31.970664 H 79.068137 L 79.032847,157.0351 h 61.111933 c 0,0 -7.4816,-28.08563 -8.6406,-53.2689 -1.50399,-32.679449 -1.53813,-71.795536 -1.53813,-71.795536 z"
     id="path2467"
     inkscape:label="leftCorner3pt"
     sodipodi:nodetypes="ccccsc" /><path
     style="opacity:1;fill:none;fill-opacity:1;stroke:#00ff00;stroke-width:1.5;stroke-dasharray:none;stroke-dashoffset:0;stroke-opacity:1"
     d="m 542.24865,31.970664 h 52.32017 l 0.45501,125.064436 h -62.70689 c 0,0 8.99071,-34.59756 9.12681,-51.12754 0.57846,-70.258014 0.8049,-73.936896 0.8049,-73.936896 z"
     id="path2468"
     inkscape:label="rightCorner3pt"
     sodipodi:nodetypes="ccccscc" /><path
     style="opacity:1;fill:none;fill-opacity:1;stroke:#00ff00;stroke-width:1.5;stroke-dasharray:none;stroke-dashoffset:0;stroke-opacity:1"
     d="M 246.39286,280.68533 233.36411,461.3565 438.41972,460.8081 425.63466,280.49756 c 0,0 -38.16527,19.33712 -87.3274,21.48029 -36.01138,1.56988 -73.2826,-13.02545 -86.70831,-18.9054 -3.34169,-1.46353 -5.20609,-2.38712 -5.20609,-2.38712 z"
     id="path2462"
     sodipodi:nodetypes="ccccssc"
     inkscape:label="middle3pt" /><path
     style="opacity:1;fill:none;fill-opacity:1;stroke:#00ff00;stroke-width:1.5;stroke-dasharray:none;stroke-dashoffset:0;stroke-opacity:1"
     d="m 425.43843,280.73121 13.04195,180.06355 156.66589,-0.42025 -0.293,-303.33941 h -63.09774 c 0,0 -0.64269,19.54978 -33.23151,63.80642 -32.58883,44.25664 -73.08559,59.88965 -73.08559,59.88965 z"
     id="path2464"
     inkscape:label="rightWing3pt"
     sodipodi:nodetypes="cccccscc" /><path
     style="opacity:1;fill:none;fill-opacity:1;stroke:#00ff00;stroke-width:1.5;stroke-dasharray:none;stroke-dashoffset:0;stroke-opacity:1"
     d="M 233.5386,461.06184 H 79.498555 L 79.032847,157.0351 h 61.170213 c 0,0 6.48307,30.32659 33.07111,64.763 30.37631,39.34291 72.96127,59.14839 72.96127,59.14839 l -5.91234,83.87156 -5.98429,84.89208 z"
     id="path2463"
     inkscape:label="leftWing3pt"
     sodipodi:nodetypes="ccccscccc" /><path
     style="opacity:1;fill:none;fill-opacity:1;stroke:#00ff00;stroke-width:1.5;stroke-dasharray:none;stroke-dashoffset:0;stroke-opacity:1"
     d="m 79.456615,460.89374 0.201137,429.4559 514.683478,-0.64122 0.85597,-429.62074 z"
     id="path2469"
     inkscape:label="otherHalf" /><path
     style="opacity:1;fill:none;fill-opacity:1;stroke:#00ff00;stroke-width:1.5;stroke-dasharray:none;stroke-dashoffset:0;stroke-opacity:1"
     d="M 140.33303,157.44629 259.19872,107.7292 246.1673,281.53412 c 0,0 -35.7237,-18.25493 -66.87858,-52.30962 -27.90851,-30.50614 -38.95569,-71.77821 -38.95569,-71.77821 z"
     id="path2470"
     inkscape:label="leftWing2pt"
     sodipodi:nodetypes="cccsc" /><path
     style="opacity:1;fill:none;fill-opacity:1;stroke:#00ff00;stroke-width:1.5;stroke-dasharray:none;stroke-dashoffset:0;stroke-opacity:1"
     d="m 413.34378,107.7292 119.03671,49.11822 c 0,0 -7.00651,33.65488 -39.323,71.23269 -32.3165,37.57781 -67.67575,52.73415 -67.67575,52.73415 z"
     id="path2471"
     inkscape:label="rightWing2pt"
     sodipodi:nodetypes="ccscc" /></g></svg>
